<svg width="145" height="33" viewBox="0 0 145 33" version="1.1" xmlns="http://www.w3.org/2000/svg" xmlns:xlink="http://www.w3.org/1999/xlink">
<title>logo</title>
<desc>Created using Figma</desc>
<g id="Canvas" transform="translate(-365 -762)">
<g id="logo">
<g id="Group">
<g id="Group">
<g id="Vector">
<use xlink:href="#path0_fill" transform="translate(365 762)" fill="#28ADE4"/>
</g>
<g id="Vector">
<use xlink:href="#path1_fill" transform="translate(404.483 774.305)" fill="#28ADE4"/>
</g>
<g id="Vector">
<use xlink:href="#path2_fill" transform="translate(435.632 773.858)" fill="#28ADE4"/>
</g>
<g id="Vector">
<use xlink:href="#path3_fill" transform="translate(450.056 773.858)" fill="#28ADE4"/>
</g>
<g id="Vector">
<use xlink:href="#path4_fill" transform="translate(466.897 769.775)" fill="#28ADE4"/>
</g>
<g id="Vector">
<use xlink:href="#path5_fill" transform="translate(470.805 774.305)" fill="#28ADE4"/>
</g>
<g id="Vector">
<use xlink:href="#path6_fill" transform="translate(485.46 773.858)" fill="#28ADE4"/>
</g>
<g id="Vector">
<use xlink:href="#path7_fill" transform="translate(502.011 773.858)" fill="#28ADE4"/>
</g>
<g id="Vector">
<use xlink:href="#path8_fill" transform="translate(420 774.025)" fill="#28ADE4"/>
</g>
</g>
</g>
</g>
</g>
<defs>
<path id="path0_fill" d="M 23.1609 2.46102C 21.954 1.23051 19.5977 -2.13364e-07 17.3563 -2.13364e-07C 16.6667 -2.13364e-07 16.0345 0.111864 15.4023 0.335593C 13.9655 0.894915 12.2414 2.40509 12.2414 6.32034L 12.2414 22.0373C 6.72414 21.478 2.47126 16.8356 2.47126 11.4661C 2.47126 7.99831 4.1954 4.75424 7.12644 2.74068C 7.70115 2.34915 7.81609 1.62203 7.41379 1.06271C 7.01149 0.559322 6.26437 0.391525 5.68966 0.78305C 2.12644 3.24407 -4.38471e-07 7.21526 -4.38471e-07 11.4661C -4.38471e-07 18.178 5.34483 23.8271 12.1839 24.4424L 12.1839 31.8254C 12.1839 32.4966 12.7586 33 13.3908 33C 14.0805 33 14.5977 32.4407 14.5977 31.8254L 14.5977 24.4424C 21.4943 23.8271 26.8391 18.178 26.8391 11.4661C 26.8391 8.11017 25.5172 4.8661 23.1609 2.46102ZM 24.4253 11.4661C 24.4253 16.8356 20.1724 21.478 14.7126 22.0373L 14.7126 6.37627C 14.7126 4.92203 15 3.07627 16.3793 2.57288C 16.6667 2.46102 17.0115 2.40509 17.4138 2.40509C 18.908 2.40509 20.6322 3.3 21.4368 4.13898C 23.3333 6.09661 24.4253 8.72542 24.4253 11.4661Z"/>
<path id="path1_fill" d="M 12.4138 11.9695L 10.0575 11.9695L 10.0575 10.1797L 10 10.1797C 8.90805 11.8576 6.95402 12.4169 5.17241 12.4169C 2.18391 12.4169 0 11.1864 0 8.1661L 0 8.53458e-07L 2.35632 8.53458e-07L 2.35632 7.71864C 2.35632 9.50848 3.50575 10.5153 5.97701 10.5153C 8.10345 10.5153 10 9.28475 10 6.93559L 10 8.53458e-07L 12.3563 8.53458e-07L 12.3563 11.9695L 12.4138 11.9695Z"/>
<path id="path2_fill" d="M 2.35632 8.66949C 2.35632 9.7322 3.27587 11.0746 6.26437 11.0746C 9.31035 11.0746 10.0575 10.0678 10.0575 9.17288C 10.0575 8.3339 9.5977 7.83051 7.70115 7.55085L 3.79311 7.04746C 2.0115 6.82373 0.45977 5.70508 0.45977 3.85932C 0.45977 1.45424 2.64368 -8.53458e-07 6.09196 -8.53458e-07C 10.1149 -8.53458e-07 11.8966 1.67797 12.1264 4.02712L 9.77011 4.02712C 9.71264 2.79661 8.50575 1.78983 6.09196 1.78983C 4.5977 1.78983 2.8161 2.18136 2.8161 3.63559C 2.8161 4.41864 3.21839 4.92203 4.88506 5.14576L 8.21839 5.59322C 11.3218 5.98474 12.5287 7.10339 12.5287 8.78135C 12.5287 11.578 10.1149 12.8644 6.32184 12.8644C 3.50575 12.8644 0.287355 12.1373 -1.75388e-06 8.66949L 2.35632 8.66949Z"/>
<path id="path3_fill" d="M 7.12746 -8.53458e-07C 11.955 -8.53458e-07 14.2539 2.96441 14.2539 6.4322C 14.2539 9.9 11.8976 12.8644 7.12746 12.8644C 2.29987 12.8644 0.00102793 9.9 0.00102793 6.4322C -0.0564433 2.96441 2.29987 -8.53458e-07 7.12746 -8.53458e-07ZM 7.12746 1.95763C 3.73666 1.95763 2.47229 4.25085 2.47229 6.4322C 2.47229 8.61356 3.73666 10.9068 7.12746 10.9068C 10.5183 10.9068 11.7826 8.61356 11.7826 6.4322C 11.7826 4.25085 10.5183 1.95763 7.12746 1.95763Z"/>
<path id="path4_fill" d="M 3.50777e-06 -4.26729e-07L 2.35632 -4.26729e-07L 2.35632 16.5L 3.50777e-06 16.5L 3.50777e-06 -4.26729e-07Z"/>
<path id="path5_fill" d="M 11.092 8.53458e-07L 13.7356 8.53458e-07L 8.16092 12.0254L 5.57472 12.0254L -3.50777e-06 8.53458e-07L 2.70115 8.53458e-07L 6.95402 9.50848L 11.092 8.53458e-07Z"/>
<path id="path6_fill" d="M 2.5862 7.10339C 2.75862 9.56441 5.05747 10.9068 7.12644 10.9068C 8.44828 10.9068 10.2874 10.4593 11.092 8.78135L 13.5632 8.78135C 12.4138 11.6898 9.65517 12.8644 7.1839 12.8644C 2.35632 12.8644 -3.50777e-06 9.9 -3.50777e-06 6.4322C -3.50777e-06 2.96441 2.35632 -8.53458e-07 7.1839 -8.53458e-07C 10.4598 -8.53458e-07 13.8506 1.84576 13.8506 6.82373L 13.8506 7.10339L 2.5862 7.10339ZM 11.4368 5.31356C 11.092 3.1322 9.36782 1.90169 7.12644 1.90169C 4.94253 1.90169 2.98851 3.1322 2.64368 5.31356L 11.4368 5.31356Z"/>
<path id="path7_fill" d="M 7.01553e-06 0.447458L 2.35631 0.447458L 2.35631 2.62881L 2.41379 2.62881C 3.50574 0.727118 5.11494 -8.53458e-07 6.66666 -8.53458e-07C 7.24137 -8.53458e-07 7.58621 -4.25062e-07 7.98851 0.111864L 7.98851 2.57288C 7.4138 2.46102 6.95403 2.34915 6.32185 2.34915C 3.96552 2.34915 2.35631 3.69152 2.35631 6.26441L 2.35631 12.361L 7.01553e-06 12.361L 7.01553e-06 0.447458Z"/>
<path id="path8_fill" d="M 7.06897 8.53458e-07C 5.22989 8.53458e-07 3.27586 0.671187 2.35632 1.95763L 2.29885 1.95763L 2.29885 0.279662L 0 0.279662L 0 16.8915L 2.35632 16.8915L 2.24138 6.65593C 2.24138 6.54407 2.24138 6.4322 2.24138 6.32034C 2.24138 4.02712 3.62069 1.90169 6.83908 1.90169C 10 1.90169 11.3793 4.02712 11.3793 6.32034C 11.3793 9.06102 9.5977 10.739 6.83908 10.739C 6.09195 10.739 5.4023 10.6271 4.82759 10.4034L 4.82759 12.3051C 5.57471 12.5288 6.32184 12.6407 7.12644 12.6407C 10.8621 12.6407 13.8506 10.3475 13.8506 6.32034C 13.8506 2.29322 10.8046 8.53458e-07 7.06897 8.53458e-07Z"/>
</defs>
</svg>
